<?xml version="1.0" encoding="UTF-8" standalone="no"?>
<!DOCTYPE svg PUBLIC "-//W3C//DTD SVG 1.1//EN"
 "http://www.w3.org/Graphics/SVG/1.1/DTD/svg11.dtd">
<!-- Generated by graphviz version 2.38.0 (20140413.2041)
 -->
<!-- Title: G Pages: 1 -->
<svg width="1222pt" height="1721pt"
 viewBox="0.00 0.00 1221.50 1721.00" xmlns="http://www.w3.org/2000/svg" xmlns:xlink="http://www.w3.org/1999/xlink">
<g id="graph0" class="graph" transform="scale(1 1) rotate(0) translate(4 1717)">
<title>G</title>
<polygon fill="white" stroke="none" points="-4,4 -4,-1717 1217.5,-1717 1217.5,4 -4,4"/>
<!-- 32 -->
<g id="32" class="node"><title>32</title>
<polygon fill="none" stroke="black" points="874,-1531.5 874,-1567.5 1113,-1567.5 1113,-1531.5 874,-1531.5"/>
<text text-anchor="middle" x="946.5" y="-1545.8" font-family="Times,serif" font-size="14.00">CreateUser_weblogic</text>
<polyline fill="none" stroke="black" points="1019,-1531.5 1019,-1567.5 "/>
<text text-anchor="middle" x="1041" y="-1545.8" font-family="Times,serif" font-size="14.00">null</text>
<polyline fill="none" stroke="black" points="1063,-1531.5 1063,-1567.5 "/>
<text text-anchor="middle" x="1088" y="-1545.8" font-family="Times,serif" font-size="14.00">dummy</text>
</g>
<!-- 33 -->
<g id="33" class="node"><title>33</title>
<polygon fill="none" stroke="black" points="881,-1458.5 881,-1494.5 1106,-1494.5 1106,-1458.5 881,-1458.5"/>
<text text-anchor="middle" x="946.5" y="-1472.8" font-family="Times,serif" font-size="14.00">CreateFS_weblogic</text>
<polyline fill="none" stroke="black" points="1012,-1458.5 1012,-1494.5 "/>
<text text-anchor="middle" x="1034" y="-1472.8" font-family="Times,serif" font-size="14.00">null</text>
<polyline fill="none" stroke="black" points="1056,-1458.5 1056,-1494.5 "/>
<text text-anchor="middle" x="1081" y="-1472.8" font-family="Times,serif" font-size="14.00">dummy</text>
</g>
<!-- 32&#45;&gt;33 -->
<g id="edge50" class="edge"><title>32&#45;&gt;33</title>
<path fill="none" stroke="black" d="M993.5,-1531.31C993.5,-1523.29 993.5,-1513.55 993.5,-1504.57"/>
<polygon fill="black" stroke="black" points="997,-1504.53 993.5,-1494.53 990,-1504.53 997,-1504.53"/>
</g>
<!-- 38 -->
<g id="38" class="node"><title>38</title>
<polygon fill="#b2dfee" stroke="#b2dfee" points="311,-729.5 311,-765.5 522,-765.5 522,-729.5 311,-729.5"/>
<text text-anchor="middle" x="349.5" y="-743.8" font-family="Times,serif" font-size="14.00">CreateJVM</text>
<polyline fill="none" stroke="#b2dfee" points="388,-729.5 388,-765.5 "/>
<text text-anchor="middle" x="430" y="-743.8" font-family="Times,serif" font-size="14.00">node2:4546</text>
<polyline fill="none" stroke="#b2dfee" points="472,-729.5 472,-765.5 "/>
<text text-anchor="middle" x="497" y="-743.8" font-family="Times,serif" font-size="14.00">dummy</text>
</g>
<!-- 39 -->
<g id="39" class="node"><title>39</title>
<polygon fill="#b2dfee" stroke="#b2dfee" points="297.5,-656.5 297.5,-692.5 529.5,-692.5 529.5,-656.5 297.5,-656.5"/>
<text text-anchor="middle" x="346.5" y="-670.8" font-family="Times,serif" font-size="14.00">AddToCluster</text>
<polyline fill="none" stroke="#b2dfee" points="395.5,-656.5 395.5,-692.5 "/>
<text text-anchor="middle" x="437.5" y="-670.8" font-family="Times,serif" font-size="14.00">node2:4546</text>
<polyline fill="none" stroke="#b2dfee" points="479.5,-656.5 479.5,-692.5 "/>
<text text-anchor="middle" x="504.5" y="-670.8" font-family="Times,serif" font-size="14.00">dummy</text>
</g>
<!-- 38&#45;&gt;39 -->
<g id="edge57" class="edge"><title>38&#45;&gt;39</title>
<path fill="none" stroke="black" d="M415.774,-729.313C415.435,-721.289 415.023,-711.547 414.644,-702.569"/>
<polygon fill="black" stroke="black" points="418.139,-702.372 414.22,-692.529 411.145,-702.668 418.139,-702.372"/>
</g>
<!-- 42 -->
<g id="42" class="node"><title>42</title>
<polygon fill="#b2dfee" stroke="#b2dfee" points="837,-802.5 837,-838.5 1062,-838.5 1062,-802.5 837,-802.5"/>
<text text-anchor="middle" x="882.5" y="-816.8" font-family="Times,serif" font-size="14.00">PurgeDomain</text>
<polyline fill="none" stroke="#b2dfee" points="928,-802.5 928,-838.5 "/>
<text text-anchor="middle" x="970" y="-816.8" font-family="Times,serif" font-size="14.00">node3:4546</text>
<polyline fill="none" stroke="#b2dfee" points="1012,-802.5 1012,-838.5 "/>
<text text-anchor="middle" x="1037" y="-816.8" font-family="Times,serif" font-size="14.00">dummy</text>
</g>
<!-- 43 -->
<g id="43" class="node"><title>43</title>
<polygon fill="#b2dfee" stroke="#b2dfee" points="845,-729.5 845,-765.5 1056,-765.5 1056,-729.5 845,-729.5"/>
<text text-anchor="middle" x="883.5" y="-743.8" font-family="Times,serif" font-size="14.00">CreateJVM</text>
<polyline fill="none" stroke="#b2dfee" points="922,-729.5 922,-765.5 "/>
<text text-anchor="middle" x="964" y="-743.8" font-family="Times,serif" font-size="14.00">node3:4546</text>
<polyline fill="none" stroke="#b2dfee" points="1006,-729.5 1006,-765.5 "/>
<text text-anchor="middle" x="1031" y="-743.8" font-family="Times,serif" font-size="14.00">dummy</text>
</g>
<!-- 42&#45;&gt;43 -->
<g id="edge63" class="edge"><title>42&#45;&gt;43</title>
<path fill="none" stroke="black" d="M949.742,-802.313C949.855,-794.289 949.992,-784.547 950.119,-775.569"/>
<polygon fill="black" stroke="black" points="953.619,-775.577 950.26,-765.529 946.62,-775.479 953.619,-775.577"/>
</g>
<!-- 41 -->
<g id="41" class="node"><title>41</title>
<polygon fill="#b2dfee" stroke="#b2dfee" points="835.5,-656.5 835.5,-692.5 1067.5,-692.5 1067.5,-656.5 835.5,-656.5"/>
<text text-anchor="middle" x="884.5" y="-670.8" font-family="Times,serif" font-size="14.00">AddToCluster</text>
<polyline fill="none" stroke="#b2dfee" points="933.5,-656.5 933.5,-692.5 "/>
<text text-anchor="middle" x="975.5" y="-670.8" font-family="Times,serif" font-size="14.00">node3:4546</text>
<polyline fill="none" stroke="#b2dfee" points="1017.5,-656.5 1017.5,-692.5 "/>
<text text-anchor="middle" x="1042.5" y="-670.8" font-family="Times,serif" font-size="14.00">dummy</text>
</g>
<!-- 43&#45;&gt;41 -->
<g id="edge64" class="edge"><title>43&#45;&gt;41</title>
<path fill="none" stroke="black" d="M950.742,-729.313C950.855,-721.289 950.992,-711.547 951.119,-702.569"/>
<polygon fill="black" stroke="black" points="954.619,-702.577 951.26,-692.529 947.62,-702.479 954.619,-702.577"/>
</g>
<!-- 22 -->
<g id="22" class="node"><title>22</title>
<polygon fill="none" stroke="black" points="601.5,-401 549.216,-383 601.5,-365 653.784,-383 601.5,-401"/>
<text text-anchor="middle" x="601.5" y="-379.3" font-family="Times,serif" font-size="14.00">layer7</text>
</g>
<!-- 41&#45;&gt;22 -->
<g id="edge62" class="edge"><title>41&#45;&gt;22</title>
<path fill="none" stroke="black" d="M947.955,-656.329C937.949,-612.401 905.219,-495.309 830.5,-437 782.193,-399.302 711.771,-387.594 661.796,-384.356"/>
<polygon fill="black" stroke="black" points="661.95,-380.859 651.772,-383.801 661.563,-387.848 661.95,-380.859"/>
</g>
<!-- 2 -->
<g id="2" class="node"><title>2</title>
<polygon fill="none" stroke="black" points="633,-583.5 633,-619.5 818,-619.5 818,-583.5 633,-583.5"/>
<text text-anchor="middle" x="678.5" y="-597.8" font-family="Times,serif" font-size="14.00">PurgeDomain</text>
<polyline fill="none" stroke="black" points="724,-583.5 724,-619.5 "/>
<text text-anchor="middle" x="746" y="-597.8" font-family="Times,serif" font-size="14.00">null</text>
<polyline fill="none" stroke="black" points="768,-583.5 768,-619.5 "/>
<text text-anchor="middle" x="793" y="-597.8" font-family="Times,serif" font-size="14.00">dummy</text>
</g>
<!-- 41&#45;&gt;2 -->
<g id="edge61" class="edge"><title>41&#45;&gt;2</title>
<path fill="none" stroke="black" d="M897.367,-656.494C865.039,-646.338 823.792,-633.379 789.81,-622.704"/>
<polygon fill="black" stroke="black" points="790.564,-619.272 779.974,-619.614 788.465,-625.95 790.564,-619.272"/>
</g>
<!-- 7 -->
<g id="7" class="node"><title>7</title>
<polygon fill="none" stroke="black" points="244.5,-1385.5 244.5,-1421.5 496.5,-1421.5 496.5,-1385.5 244.5,-1385.5"/>
<text text-anchor="middle" x="323.5" y="-1399.8" font-family="Times,serif" font-size="14.00">InstallProduit_apache</text>
<polyline fill="none" stroke="black" points="402.5,-1385.5 402.5,-1421.5 "/>
<text text-anchor="middle" x="424.5" y="-1399.8" font-family="Times,serif" font-size="14.00">null</text>
<polyline fill="none" stroke="black" points="446.5,-1385.5 446.5,-1421.5 "/>
<text text-anchor="middle" x="471.5" y="-1399.8" font-family="Times,serif" font-size="14.00">dummy</text>
</g>
<!-- 12 -->
<g id="12" class="node"><title>12</title>
<polygon fill="none" stroke="black" points="639.5,-1349 587.216,-1331 639.5,-1313 691.784,-1331 639.5,-1349"/>
<text text-anchor="middle" x="639.5" y="-1327.3" font-family="Times,serif" font-size="14.00">layer5</text>
</g>
<!-- 7&#45;&gt;12 -->
<g id="edge8" class="edge"><title>7&#45;&gt;12</title>
<path fill="none" stroke="black" d="M435.617,-1385.43C487.584,-1371.81 558.578,-1353.21 601.618,-1341.93"/>
<polygon fill="black" stroke="black" points="602.621,-1345.28 611.406,-1339.36 600.846,-1338.51 602.621,-1345.28"/>
</g>
<!-- 8 -->
<g id="8" class="node"><title>8</title>
<polygon fill="none" stroke="black" points="602,-1676.5 602,-1712.5 753,-1712.5 753,-1676.5 602,-1676.5"/>
<text text-anchor="middle" x="630.5" y="-1690.8" font-family="Times,serif" font-size="14.00">layer3</text>
<polyline fill="none" stroke="black" points="659,-1676.5 659,-1712.5 "/>
<text text-anchor="middle" x="681" y="-1690.8" font-family="Times,serif" font-size="14.00">null</text>
<polyline fill="none" stroke="black" points="703,-1676.5 703,-1712.5 "/>
<text text-anchor="middle" x="728" y="-1690.8" font-family="Times,serif" font-size="14.00">dummy</text>
</g>
<!-- 10 -->
<g id="10" class="node"><title>10</title>
<polygon fill="none" stroke="black" points="524.5,-1640 472.216,-1622 524.5,-1604 576.784,-1622 524.5,-1640"/>
<text text-anchor="middle" x="524.5" y="-1618.3" font-family="Times,serif" font-size="14.00">apache</text>
</g>
<!-- 8&#45;&gt;10 -->
<g id="edge10" class="edge"><title>8&#45;&gt;10</title>
<path fill="none" stroke="black" d="M640.463,-1676.43C614.23,-1664.35 579.471,-1648.33 554.87,-1636.99"/>
<polygon fill="black" stroke="black" points="556.2,-1633.75 545.653,-1632.75 553.271,-1640.11 556.2,-1633.75"/>
</g>
<!-- 11 -->
<g id="11" class="node"><title>11</title>
<polygon fill="none" stroke="black" points="677.5,-1640 625.216,-1622 677.5,-1604 729.784,-1622 677.5,-1640"/>
<text text-anchor="middle" x="677.5" y="-1618.3" font-family="Times,serif" font-size="14.00">oracle</text>
</g>
<!-- 8&#45;&gt;11 -->
<g id="edge11" class="edge"><title>8&#45;&gt;11</title>
<path fill="none" stroke="black" d="M677.5,-1676.43C677.5,-1668.67 677.5,-1659.28 677.5,-1650.56"/>
<polygon fill="black" stroke="black" points="681,-1650.4 677.5,-1640.4 674,-1650.4 681,-1650.4"/>
</g>
<!-- 9 -->
<g id="9" class="node"><title>9</title>
<polygon fill="none" stroke="black" points="993.5,-1640 928.479,-1622 993.5,-1604 1058.52,-1622 993.5,-1640"/>
<text text-anchor="middle" x="993.5" y="-1618.3" font-family="Times,serif" font-size="14.00">weblogic</text>
</g>
<!-- 8&#45;&gt;9 -->
<g id="edge9" class="edge"><title>8&#45;&gt;9</title>
<path fill="none" stroke="black" d="M753.19,-1676.61C814.344,-1662.97 898.322,-1644.23 949.095,-1632.91"/>
<polygon fill="black" stroke="black" points="950.1,-1636.27 959.097,-1630.68 948.575,-1629.44 950.1,-1636.27"/>
</g>
<!-- 5 -->
<g id="5" class="node"><title>5</title>
<polygon fill="none" stroke="black" points="268,-1531.5 268,-1567.5 493,-1567.5 493,-1531.5 268,-1531.5"/>
<text text-anchor="middle" x="333.5" y="-1545.8" font-family="Times,serif" font-size="14.00">CreateUser_apache</text>
<polyline fill="none" stroke="black" points="399,-1531.5 399,-1567.5 "/>
<text text-anchor="middle" x="421" y="-1545.8" font-family="Times,serif" font-size="14.00">null</text>
<polyline fill="none" stroke="black" points="443,-1531.5 443,-1567.5 "/>
<text text-anchor="middle" x="468" y="-1545.8" font-family="Times,serif" font-size="14.00">dummy</text>
</g>
<!-- 10&#45;&gt;5 -->
<g id="edge14" class="edge"><title>10&#45;&gt;5</title>
<path fill="none" stroke="black" d="M503.868,-1610.9C483.207,-1600.78 450.771,-1584.9 424.342,-1571.96"/>
<polygon fill="black" stroke="black" points="425.794,-1568.78 415.274,-1567.52 422.716,-1575.07 425.794,-1568.78"/>
</g>
<!-- 10&#45;&gt;12 -->
<g id="edge15" class="edge"><title>10&#45;&gt;12</title>
<path fill="none" stroke="black" d="M523.059,-1604.31C520.362,-1563.44 518.409,-1456.47 563.5,-1385 574.119,-1368.17 592.224,-1355.23 608.1,-1346.35"/>
<polygon fill="black" stroke="black" points="609.905,-1349.35 617.116,-1341.59 606.639,-1343.16 609.905,-1349.35"/>
</g>
<!-- 19 -->
<g id="19" class="node"><title>19</title>
<polygon fill="none" stroke="black" points="225,-1094.5 225,-1130.5 498,-1130.5 498,-1094.5 225,-1094.5"/>
<text text-anchor="middle" x="314.5" y="-1108.8" font-family="Times,serif" font-size="14.00">DomaineConsommateurAdmin</text>
<polyline fill="none" stroke="black" points="404,-1094.5 404,-1130.5 "/>
<text text-anchor="middle" x="426" y="-1108.8" font-family="Times,serif" font-size="14.00">null</text>
<polyline fill="none" stroke="black" points="448,-1094.5 448,-1130.5 "/>
<text text-anchor="middle" x="473" y="-1108.8" font-family="Times,serif" font-size="14.00">dummy</text>
</g>
<!-- 20 -->
<g id="20" class="node"><title>20</title>
<polygon fill="none" stroke="black" points="221.5,-875.5 221.5,-911.5 507.5,-911.5 507.5,-875.5 221.5,-875.5"/>
<text text-anchor="middle" x="317.5" y="-889.8" font-family="Times,serif" font-size="14.00">DomaineConsommateurManaged</text>
<polyline fill="none" stroke="black" points="413.5,-875.5 413.5,-911.5 "/>
<text text-anchor="middle" x="435.5" y="-889.8" font-family="Times,serif" font-size="14.00">null</text>
<polyline fill="none" stroke="black" points="457.5,-875.5 457.5,-911.5 "/>
<text text-anchor="middle" x="482.5" y="-889.8" font-family="Times,serif" font-size="14.00">dummy</text>
</g>
<!-- 19&#45;&gt;20 -->
<g id="edge35" class="edge"><title>19&#45;&gt;20</title>
<path fill="none" stroke="black" d="M361.735,-1094.47C362.253,-1057.01 363.495,-967.176 364.123,-921.764"/>
<polygon fill="black" stroke="black" points="367.623,-921.796 364.262,-911.749 360.624,-921.699 367.623,-921.796"/>
</g>
<!-- 29 -->
<g id="29" class="node"><title>29</title>
<polygon fill="none" stroke="black" points="595,-1531.5 595,-1567.5 820,-1567.5 820,-1531.5 595,-1531.5"/>
<text text-anchor="middle" x="660.5" y="-1545.8" font-family="Times,serif" font-size="14.00">CreateUser_oracle</text>
<polyline fill="none" stroke="black" points="726,-1531.5 726,-1567.5 "/>
<text text-anchor="middle" x="748" y="-1545.8" font-family="Times,serif" font-size="14.00">null</text>
<polyline fill="none" stroke="black" points="770,-1531.5 770,-1567.5 "/>
<text text-anchor="middle" x="795" y="-1545.8" font-family="Times,serif" font-size="14.00">dummy</text>
</g>
<!-- 30 -->
<g id="30" class="node"><title>30</title>
<polygon fill="none" stroke="black" points="607.5,-1458.5 607.5,-1494.5 819.5,-1494.5 819.5,-1458.5 607.5,-1458.5"/>
<text text-anchor="middle" x="666.5" y="-1472.8" font-family="Times,serif" font-size="14.00">CreateFS_oracle</text>
<polyline fill="none" stroke="black" points="725.5,-1458.5 725.5,-1494.5 "/>
<text text-anchor="middle" x="747.5" y="-1472.8" font-family="Times,serif" font-size="14.00">null</text>
<polyline fill="none" stroke="black" points="769.5,-1458.5 769.5,-1494.5 "/>
<text text-anchor="middle" x="794.5" y="-1472.8" font-family="Times,serif" font-size="14.00">dummy</text>
</g>
<!-- 29&#45;&gt;30 -->
<g id="edge47" class="edge"><title>29&#45;&gt;30</title>
<path fill="none" stroke="black" d="M708.952,-1531.31C709.63,-1523.29 710.454,-1513.55 711.212,-1504.57"/>
<polygon fill="black" stroke="black" points="714.706,-1504.79 712.061,-1494.53 707.731,-1504.2 714.706,-1504.79"/>
</g>
<!-- 36 -->
<g id="36" class="node"><title>36</title>
<polygon fill="#b2dfee" stroke="#b2dfee" points="553,-802.5 553,-838.5 778,-838.5 778,-802.5 553,-802.5"/>
<text text-anchor="middle" x="598.5" y="-816.8" font-family="Times,serif" font-size="14.00">PurgeDomain</text>
<polyline fill="none" stroke="#b2dfee" points="644,-802.5 644,-838.5 "/>
<text text-anchor="middle" x="686" y="-816.8" font-family="Times,serif" font-size="14.00">node1:4546</text>
<polyline fill="none" stroke="#b2dfee" points="728,-802.5 728,-838.5 "/>
<text text-anchor="middle" x="753" y="-816.8" font-family="Times,serif" font-size="14.00">dummy</text>
</g>
<!-- 37 -->
<g id="37" class="node"><title>37</title>
<polygon fill="#b2dfee" stroke="#b2dfee" points="559,-729.5 559,-765.5 770,-765.5 770,-729.5 559,-729.5"/>
<text text-anchor="middle" x="597.5" y="-743.8" font-family="Times,serif" font-size="14.00">CreateJVM</text>
<polyline fill="none" stroke="#b2dfee" points="636,-729.5 636,-765.5 "/>
<text text-anchor="middle" x="678" y="-743.8" font-family="Times,serif" font-size="14.00">node1:4546</text>
<polyline fill="none" stroke="#b2dfee" points="720,-729.5 720,-765.5 "/>
<text text-anchor="middle" x="745" y="-743.8" font-family="Times,serif" font-size="14.00">dummy</text>
</g>
<!-- 36&#45;&gt;37 -->
<g id="edge55" class="edge"><title>36&#45;&gt;37</title>
<path fill="none" stroke="black" d="M665.258,-802.313C665.145,-794.289 665.008,-784.547 664.881,-775.569"/>
<polygon fill="black" stroke="black" points="668.38,-775.479 664.74,-765.529 661.381,-775.577 668.38,-775.479"/>
</g>
<!-- 1 -->
<g id="1" class="node"><title>1</title>
<polygon fill="none" stroke="black" points="519.5,-948.5 519.5,-984.5 711.5,-984.5 711.5,-948.5 519.5,-948.5"/>
<text text-anchor="middle" x="568.5" y="-962.8" font-family="Times,serif" font-size="14.00">CreateDomain</text>
<polyline fill="none" stroke="black" points="617.5,-948.5 617.5,-984.5 "/>
<text text-anchor="middle" x="639.5" y="-962.8" font-family="Times,serif" font-size="14.00">null</text>
<polyline fill="none" stroke="black" points="661.5,-948.5 661.5,-984.5 "/>
<text text-anchor="middle" x="686.5" y="-962.8" font-family="Times,serif" font-size="14.00">dummy</text>
</g>
<!-- 18 -->
<g id="18" class="node"><title>18</title>
<polygon fill="none" stroke="black" points="690.5,-911.5 525.942,-893.5 690.5,-875.5 855.058,-893.5 690.5,-911.5"/>
<text text-anchor="middle" x="690.5" y="-889.8" font-family="Times,serif" font-size="14.00">DomaineProducteurManaged</text>
</g>
<!-- 1&#45;&gt;18 -->
<g id="edge2" class="edge"><title>1&#45;&gt;18</title>
<path fill="none" stroke="black" d="M633.655,-948.313C643.633,-938.868 656.126,-927.041 666.857,-916.882"/>
<polygon fill="black" stroke="black" points="669.442,-919.254 674.298,-909.838 664.63,-914.171 669.442,-919.254"/>
</g>
<!-- 31 -->
<g id="31" class="node"><title>31</title>
<polygon fill="none" stroke="black" points="590.5,-1385.5 590.5,-1421.5 842.5,-1421.5 842.5,-1385.5 590.5,-1385.5"/>
<text text-anchor="middle" x="669.5" y="-1399.8" font-family="Times,serif" font-size="14.00">InstallProduit_oracle</text>
<polyline fill="none" stroke="black" points="748.5,-1385.5 748.5,-1421.5 "/>
<text text-anchor="middle" x="770.5" y="-1399.8" font-family="Times,serif" font-size="14.00">null</text>
<polyline fill="none" stroke="black" points="792.5,-1385.5 792.5,-1421.5 "/>
<text text-anchor="middle" x="817.5" y="-1399.8" font-family="Times,serif" font-size="14.00">dummy</text>
</g>
<!-- 31&#45;&gt;12 -->
<g id="edge49" class="edge"><title>31&#45;&gt;12</title>
<path fill="none" stroke="black" d="M697.86,-1385.43C686.722,-1375.24 672.53,-1362.24 660.93,-1351.62"/>
<polygon fill="black" stroke="black" points="663.122,-1348.88 653.383,-1344.71 658.395,-1354.05 663.122,-1348.88"/>
</g>
<!-- 34 -->
<g id="34" class="node"><title>34</title>
<polygon fill="none" stroke="black" points="860.5,-1385.5 860.5,-1421.5 1126.5,-1421.5 1126.5,-1385.5 860.5,-1385.5"/>
<text text-anchor="middle" x="946.5" y="-1399.8" font-family="Times,serif" font-size="14.00">InstallProduit_weblogic</text>
<polyline fill="none" stroke="black" points="1032.5,-1385.5 1032.5,-1421.5 "/>
<text text-anchor="middle" x="1054.5" y="-1399.8" font-family="Times,serif" font-size="14.00">null</text>
<polyline fill="none" stroke="black" points="1076.5,-1385.5 1076.5,-1421.5 "/>
<text text-anchor="middle" x="1101.5" y="-1399.8" font-family="Times,serif" font-size="14.00">dummy</text>
</g>
<!-- 33&#45;&gt;34 -->
<g id="edge51" class="edge"><title>33&#45;&gt;34</title>
<path fill="none" stroke="black" d="M993.5,-1458.31C993.5,-1450.29 993.5,-1440.55 993.5,-1431.57"/>
<polygon fill="black" stroke="black" points="997,-1431.53 993.5,-1421.53 990,-1431.53 997,-1431.53"/>
</g>
<!-- 35 -->
<g id="35" class="node"><title>35</title>
<polygon fill="#b2dfee" stroke="#b2dfee" points="547.5,-656.5 547.5,-692.5 779.5,-692.5 779.5,-656.5 547.5,-656.5"/>
<text text-anchor="middle" x="596.5" y="-670.8" font-family="Times,serif" font-size="14.00">AddToCluster</text>
<polyline fill="none" stroke="#b2dfee" points="645.5,-656.5 645.5,-692.5 "/>
<text text-anchor="middle" x="687.5" y="-670.8" font-family="Times,serif" font-size="14.00">node1:4546</text>
<polyline fill="none" stroke="#b2dfee" points="729.5,-656.5 729.5,-692.5 "/>
<text text-anchor="middle" x="754.5" y="-670.8" font-family="Times,serif" font-size="14.00">dummy</text>
</g>
<!-- 37&#45;&gt;35 -->
<g id="edge56" class="edge"><title>37&#45;&gt;35</title>
<path fill="none" stroke="black" d="M664.258,-729.313C664.145,-721.289 664.008,-711.547 663.881,-702.569"/>
<polygon fill="black" stroke="black" points="667.38,-702.479 663.74,-692.529 660.381,-702.577 667.38,-702.479"/>
</g>
<!-- 39&#45;&gt;22 -->
<g id="edge59" class="edge"><title>39&#45;&gt;22</title>
<path fill="none" stroke="black" d="M424.697,-656.257C457.045,-606.445 550.628,-462.338 586.897,-406.488"/>
<polygon fill="black" stroke="black" points="589.89,-408.305 592.401,-398.012 584.019,-404.493 589.89,-408.305"/>
</g>
<!-- 39&#45;&gt;2 -->
<g id="edge58" class="edge"><title>39&#45;&gt;2</title>
<path fill="none" stroke="black" d="M488.232,-656.494C534.095,-646.057 592.961,-632.661 640.585,-621.824"/>
<polygon fill="black" stroke="black" points="641.593,-625.184 650.567,-619.552 640.04,-618.358 641.593,-625.184"/>
</g>
<!-- 4 -->
<g id="4" class="node"><title>4</title>
<polygon fill="none" stroke="black" points="629.5,-437.5 629.5,-473.5 821.5,-473.5 821.5,-437.5 629.5,-437.5"/>
<text text-anchor="middle" x="678.5" y="-451.8" font-family="Times,serif" font-size="14.00">AddToCluster</text>
<polyline fill="none" stroke="black" points="727.5,-437.5 727.5,-473.5 "/>
<text text-anchor="middle" x="749.5" y="-451.8" font-family="Times,serif" font-size="14.00">null</text>
<polyline fill="none" stroke="black" points="771.5,-437.5 771.5,-473.5 "/>
<text text-anchor="middle" x="796.5" y="-451.8" font-family="Times,serif" font-size="14.00">dummy</text>
</g>
<!-- 4&#45;&gt;22 -->
<g id="edge5" class="edge"><title>4&#45;&gt;22</title>
<path fill="none" stroke="black" d="M695.483,-437.434C675.311,-425.965 648.92,-410.96 629.24,-399.772"/>
<polygon fill="black" stroke="black" points="630.87,-396.672 620.447,-394.772 627.41,-402.757 630.87,-396.672"/>
</g>
<!-- 14 -->
<g id="14" class="node"><title>14</title>
<polygon fill="none" stroke="black" points="868.5,-948.5 868.5,-984.5 1060.5,-984.5 1060.5,-948.5 868.5,-948.5"/>
<text text-anchor="middle" x="917.5" y="-962.8" font-family="Times,serif" font-size="14.00">ApacheInstit</text>
<polyline fill="none" stroke="black" points="966.5,-948.5 966.5,-984.5 "/>
<text text-anchor="middle" x="988.5" y="-962.8" font-family="Times,serif" font-size="14.00">null</text>
<polyline fill="none" stroke="black" points="1010.5,-948.5 1010.5,-984.5 "/>
<text text-anchor="middle" x="1035.5" y="-962.8" font-family="Times,serif" font-size="14.00">dummy</text>
</g>
<!-- 14&#45;&gt;22 -->
<g id="edge22" class="edge"><title>14&#45;&gt;22</title>
<path fill="none" stroke="black" d="M996.882,-948.343C1035.67,-925.175 1095.5,-879.969 1095.5,-821.5 1095.5,-821.5 1095.5,-821.5 1095.5,-527.5 1095.5,-435.964 778.761,-399.011 652.529,-387.919"/>
<polygon fill="black" stroke="black" points="652.609,-384.413 642.346,-387.044 652.01,-391.388 652.609,-384.413"/>
</g>
<!-- 18&#45;&gt;42 -->
<g id="edge34" class="edge"><title>18&#45;&gt;42</title>
<path fill="none" stroke="black" d="M735.024,-880.295C774.1,-869.583 831.658,-853.804 877.311,-841.289"/>
<polygon fill="black" stroke="black" points="878.438,-844.61 887.157,-838.59 876.587,-837.859 878.438,-844.61"/>
</g>
<!-- 18&#45;&gt;36 -->
<g id="edge32" class="edge"><title>18&#45;&gt;36</title>
<path fill="none" stroke="black" d="M684.702,-876.033C681.82,-867.85 678.265,-857.752 674.999,-848.478"/>
<polygon fill="black" stroke="black" points="678.238,-847.138 671.616,-838.869 671.636,-849.463 678.238,-847.138"/>
</g>
<!-- 18&#45;&gt;22 -->
<g id="edge31" class="edge"><title>18&#45;&gt;22</title>
<path fill="none" stroke="black" d="M612.131,-884.008C500.922,-871.646 309.385,-849.072 297.5,-839 265.38,-811.779 269.5,-790.603 269.5,-748.5 269.5,-748.5 269.5,-748.5 269.5,-527.5 269.5,-410.419 445.621,-387.764 541.31,-384.095"/>
<polygon fill="black" stroke="black" points="541.556,-387.589 551.437,-383.766 541.328,-380.593 541.556,-387.589"/>
</g>
<!-- 18&#45;&gt;2 -->
<g id="edge30" class="edge"><title>18&#45;&gt;2</title>
<path fill="none" stroke="black" d="M732.563,-880.097C752.575,-871.861 774.669,-858.825 786.5,-839 828.182,-769.153 822.657,-729.819 788.5,-656 783.032,-644.183 773.525,-634.021 763.529,-625.826"/>
<polygon fill="black" stroke="black" points="765.549,-622.965 755.476,-619.682 761.303,-628.53 765.549,-622.965"/>
</g>
<!-- 40 -->
<g id="40" class="node"><title>40</title>
<polygon fill="#b2dfee" stroke="#b2dfee" points="307,-802.5 307,-838.5 532,-838.5 532,-802.5 307,-802.5"/>
<text text-anchor="middle" x="352.5" y="-816.8" font-family="Times,serif" font-size="14.00">PurgeDomain</text>
<polyline fill="none" stroke="#b2dfee" points="398,-802.5 398,-838.5 "/>
<text text-anchor="middle" x="440" y="-816.8" font-family="Times,serif" font-size="14.00">node2:4546</text>
<polyline fill="none" stroke="#b2dfee" points="482,-802.5 482,-838.5 "/>
<text text-anchor="middle" x="507" y="-816.8" font-family="Times,serif" font-size="14.00">dummy</text>
</g>
<!-- 18&#45;&gt;40 -->
<g id="edge33" class="edge"><title>18&#45;&gt;40</title>
<path fill="none" stroke="black" d="M644.529,-880.456C603.417,-869.685 542.402,-853.7 494.275,-841.09"/>
<polygon fill="black" stroke="black" points="495.082,-837.684 484.522,-838.535 493.308,-844.455 495.082,-837.684"/>
</g>
<!-- 23 -->
<g id="23" class="node"><title>23</title>
<polygon fill="none" stroke="black" points="509,-292.5 509,-328.5 694,-328.5 694,-292.5 509,-292.5"/>
<text text-anchor="middle" x="554.5" y="-306.8" font-family="Times,serif" font-size="14.00">Startlayer7</text>
<polyline fill="none" stroke="black" points="600,-292.5 600,-328.5 "/>
<text text-anchor="middle" x="622" y="-306.8" font-family="Times,serif" font-size="14.00">null</text>
<polyline fill="none" stroke="black" points="644,-292.5 644,-328.5 "/>
<text text-anchor="middle" x="669" y="-306.8" font-family="Times,serif" font-size="14.00">dummy</text>
</g>
<!-- 22&#45;&gt;23 -->
<g id="edge38" class="edge"><title>22&#45;&gt;23</title>
<path fill="none" stroke="black" d="M601.5,-364.934C601.5,-357.17 601.5,-347.784 601.5,-339.06"/>
<polygon fill="black" stroke="black" points="605,-338.899 601.5,-328.899 598,-338.899 605,-338.899"/>
</g>
<!-- 28 -->
<g id="28" class="node"><title>28</title>
<polygon fill="none" stroke="black" points="516,-0.5 516,-36.5 687,-36.5 687,-0.5 516,-0.5"/>
<text text-anchor="middle" x="554.5" y="-14.8" font-family="Times,serif" font-size="14.00">EndOfShow</text>
<polyline fill="none" stroke="black" points="593,-0.5 593,-36.5 "/>
<text text-anchor="middle" x="615" y="-14.8" font-family="Times,serif" font-size="14.00">null</text>
<polyline fill="none" stroke="black" points="637,-0.5 637,-36.5 "/>
<text text-anchor="middle" x="662" y="-14.8" font-family="Times,serif" font-size="14.00">dummy</text>
</g>
<!-- 28&#45;&gt;23 -->
<g id="edge46" class="edge"><title>28&#45;&gt;23</title>
<path fill="none" stroke="black" d="M576.861,-36.707C539.581,-65.0536 475.311,-124.298 496.5,-183 511.605,-224.847 547.243,-262.633 572.81,-285.788"/>
<polygon fill="black" stroke="black" points="570.579,-288.488 580.387,-292.493 575.218,-283.245 570.579,-288.488"/>
</g>
<!-- 35&#45;&gt;22 -->
<g id="edge54" class="edge"><title>35&#45;&gt;22</title>
<path fill="none" stroke="black" d="M646.684,-656.201C638.213,-646.392 628.666,-633.42 623.5,-620 595.912,-548.336 596.855,-455.746 599.392,-410.82"/>
<polygon fill="black" stroke="black" points="602.893,-410.92 600.037,-400.717 595.907,-410.474 602.893,-410.92"/>
</g>
<!-- 35&#45;&gt;2 -->
<g id="edge53" class="edge"><title>35&#45;&gt;2</title>
<path fill="none" stroke="black" d="M678.508,-656.313C686.124,-647.592 695.513,-636.84 703.891,-627.246"/>
<polygon fill="black" stroke="black" points="706.689,-629.363 710.63,-619.529 701.416,-624.759 706.689,-629.363"/>
</g>
<!-- 3 -->
<g id="3" class="node"><title>3</title>
<polygon fill="none" stroke="black" points="640,-510.5 640,-546.5 811,-546.5 811,-510.5 640,-510.5"/>
<text text-anchor="middle" x="678.5" y="-524.8" font-family="Times,serif" font-size="14.00">CreateJVM</text>
<polyline fill="none" stroke="black" points="717,-510.5 717,-546.5 "/>
<text text-anchor="middle" x="739" y="-524.8" font-family="Times,serif" font-size="14.00">null</text>
<polyline fill="none" stroke="black" points="761,-510.5 761,-546.5 "/>
<text text-anchor="middle" x="786" y="-524.8" font-family="Times,serif" font-size="14.00">dummy</text>
</g>
<!-- 2&#45;&gt;3 -->
<g id="edge3" class="edge"><title>2&#45;&gt;3</title>
<path fill="none" stroke="black" d="M725.5,-583.313C725.5,-575.289 725.5,-565.547 725.5,-556.569"/>
<polygon fill="black" stroke="black" points="729,-556.529 725.5,-546.529 722,-556.529 729,-556.529"/>
</g>
<!-- 24 -->
<g id="24" class="node"><title>24</title>
<polygon fill="none" stroke="black" points="505.5,-146.5 505.5,-182.5 697.5,-182.5 697.5,-146.5 505.5,-146.5"/>
<text text-anchor="middle" x="554.5" y="-160.8" font-family="Times,serif" font-size="14.00">DeployInstit</text>
<polyline fill="none" stroke="black" points="603.5,-146.5 603.5,-182.5 "/>
<text text-anchor="middle" x="625.5" y="-160.8" font-family="Times,serif" font-size="14.00">null</text>
<polyline fill="none" stroke="black" points="647.5,-146.5 647.5,-182.5 "/>
<text text-anchor="middle" x="672.5" y="-160.8" font-family="Times,serif" font-size="14.00">dummy</text>
</g>
<!-- 24&#45;&gt;28 -->
<g id="edge41" class="edge"><title>24&#45;&gt;28</title>
<path fill="none" stroke="black" d="M601.5,-146.416C601.5,-121.841 601.5,-76.2528 601.5,-46.9273"/>
<polygon fill="black" stroke="black" points="605,-46.5619 601.5,-36.5619 598,-46.562 605,-46.5619"/>
</g>
<!-- 26 -->
<g id="26" class="node"><title>26</title>
<polygon fill="none" stroke="black" points="716,-146.5 716,-182.5 935,-182.5 935,-146.5 716,-146.5"/>
<text text-anchor="middle" x="778.5" y="-160.8" font-family="Times,serif" font-size="14.00">DeployProducteur</text>
<polyline fill="none" stroke="black" points="841,-146.5 841,-182.5 "/>
<text text-anchor="middle" x="863" y="-160.8" font-family="Times,serif" font-size="14.00">null</text>
<polyline fill="none" stroke="black" points="885,-146.5 885,-182.5 "/>
<text text-anchor="middle" x="910" y="-160.8" font-family="Times,serif" font-size="14.00">dummy</text>
</g>
<!-- 27 -->
<g id="27" class="node"><title>27</title>
<polygon fill="none" stroke="black" points="709.5,-73.5 709.5,-109.5 941.5,-109.5 941.5,-73.5 709.5,-73.5"/>
<text text-anchor="middle" x="778.5" y="-87.8" font-family="Times,serif" font-size="14.00">DeployConsommateur</text>
<polyline fill="none" stroke="black" points="847.5,-73.5 847.5,-109.5 "/>
<text text-anchor="middle" x="869.5" y="-87.8" font-family="Times,serif" font-size="14.00">null</text>
<polyline fill="none" stroke="black" points="891.5,-73.5 891.5,-109.5 "/>
<text text-anchor="middle" x="916.5" y="-87.8" font-family="Times,serif" font-size="14.00">dummy</text>
</g>
<!-- 26&#45;&gt;27 -->
<g id="edge44" class="edge"><title>26&#45;&gt;27</title>
<path fill="none" stroke="black" d="M825.5,-146.313C825.5,-138.289 825.5,-128.547 825.5,-119.569"/>
<polygon fill="black" stroke="black" points="829,-119.529 825.5,-109.529 822,-119.529 829,-119.529"/>
</g>
<!-- 30&#45;&gt;31 -->
<g id="edge48" class="edge"><title>30&#45;&gt;31</title>
<path fill="none" stroke="black" d="M714.226,-1458.31C714.565,-1450.29 714.977,-1440.55 715.356,-1431.57"/>
<polygon fill="black" stroke="black" points="718.855,-1431.67 715.78,-1421.53 711.861,-1431.37 718.855,-1431.67"/>
</g>
<!-- 34&#45;&gt;12 -->
<g id="edge52" class="edge"><title>34&#45;&gt;12</title>
<path fill="none" stroke="black" d="M907.806,-1385.43C835.911,-1371.12 736.338,-1351.29 680.932,-1340.25"/>
<polygon fill="black" stroke="black" points="681.28,-1336.75 670.789,-1338.23 679.913,-1343.62 681.28,-1336.75"/>
</g>
<!-- 16 -->
<g id="16" class="node"><title>16</title>
<polygon fill="none" stroke="black" points="981.5,-1021.5 981.5,-1057.5 1213.5,-1057.5 1213.5,-1021.5 981.5,-1021.5"/>
<text text-anchor="middle" x="1050.5" y="-1035.8" font-family="Times,serif" font-size="14.00">ApacheConsommateur</text>
<polyline fill="none" stroke="black" points="1119.5,-1021.5 1119.5,-1057.5 "/>
<text text-anchor="middle" x="1141.5" y="-1035.8" font-family="Times,serif" font-size="14.00">null</text>
<polyline fill="none" stroke="black" points="1163.5,-1021.5 1163.5,-1057.5 "/>
<text text-anchor="middle" x="1188.5" y="-1035.8" font-family="Times,serif" font-size="14.00">dummy</text>
</g>
<!-- 16&#45;&gt;22 -->
<g id="edge27" class="edge"><title>16&#45;&gt;22</title>
<path fill="none" stroke="black" d="M1104.79,-1021.12C1115.3,-994.396 1133.5,-941.4 1133.5,-894.5 1133.5,-894.5 1133.5,-894.5 1133.5,-527.5 1133.5,-463.848 1081.01,-462.058 1022.5,-437 957.325,-409.089 752.147,-393.187 654.349,-387.014"/>
<polygon fill="black" stroke="black" points="654.295,-383.504 644.098,-386.378 653.862,-390.491 654.295,-383.504"/>
</g>
<!-- 27&#45;&gt;28 -->
<g id="edge45" class="edge"><title>27&#45;&gt;28</title>
<path fill="none" stroke="black" d="M771.846,-73.4937C739.804,-63.3375 698.923,-50.3795 665.241,-39.7035"/>
<polygon fill="black" stroke="black" points="666.082,-36.2987 655.492,-36.6136 663.967,-42.9716 666.082,-36.2987"/>
</g>
<!-- 40&#45;&gt;38 -->
<g id="edge60" class="edge"><title>40&#45;&gt;38</title>
<path fill="none" stroke="black" d="M418.774,-802.313C418.435,-794.289 418.023,-784.547 417.644,-775.569"/>
<polygon fill="black" stroke="black" points="421.139,-775.372 417.22,-765.529 414.145,-775.668 421.139,-775.372"/>
</g>
<!-- 6 -->
<g id="6" class="node"><title>6</title>
<polygon fill="none" stroke="black" points="268.5,-1458.5 268.5,-1494.5 480.5,-1494.5 480.5,-1458.5 268.5,-1458.5"/>
<text text-anchor="middle" x="327.5" y="-1472.8" font-family="Times,serif" font-size="14.00">CreateFS_apache</text>
<polyline fill="none" stroke="black" points="386.5,-1458.5 386.5,-1494.5 "/>
<text text-anchor="middle" x="408.5" y="-1472.8" font-family="Times,serif" font-size="14.00">null</text>
<polyline fill="none" stroke="black" points="430.5,-1458.5 430.5,-1494.5 "/>
<text text-anchor="middle" x="455.5" y="-1472.8" font-family="Times,serif" font-size="14.00">dummy</text>
</g>
<!-- 5&#45;&gt;6 -->
<g id="edge6" class="edge"><title>5&#45;&gt;6</title>
<path fill="none" stroke="black" d="M379.048,-1531.31C378.37,-1523.29 377.546,-1513.55 376.788,-1504.57"/>
<polygon fill="black" stroke="black" points="380.269,-1504.2 375.939,-1494.53 373.294,-1504.79 380.269,-1504.2"/>
</g>
<!-- 6&#45;&gt;7 -->
<g id="edge7" class="edge"><title>6&#45;&gt;7</title>
<path fill="none" stroke="black" d="M373.532,-1458.31C373.08,-1450.29 372.531,-1440.55 372.025,-1431.57"/>
<polygon fill="black" stroke="black" points="375.516,-1431.32 371.459,-1421.53 368.527,-1431.71 375.516,-1431.32"/>
</g>
<!-- 11&#45;&gt;29 -->
<g id="edge17" class="edge"><title>11&#45;&gt;29</title>
<path fill="none" stroke="black" d="M683.862,-1606.05C687.448,-1597.62 692.034,-1586.85 696.21,-1577.03"/>
<polygon fill="black" stroke="black" points="699.502,-1578.23 700.197,-1567.66 693.061,-1575.49 699.502,-1578.23"/>
</g>
<!-- 11&#45;&gt;12 -->
<g id="edge16" class="edge"><title>11&#45;&gt;12</title>
<path fill="none" stroke="black" d="M650.092,-1613.33C628.426,-1605.67 599.568,-1591.59 585.5,-1568 543.829,-1498.13 548.684,-1459.44 581.5,-1385 587.964,-1370.34 600.711,-1357.97 612.612,-1348.88"/>
<polygon fill="black" stroke="black" points="614.934,-1351.52 621.026,-1342.85 610.858,-1345.83 614.934,-1351.52"/>
</g>
<!-- 13 -->
<g id="13" class="node"><title>13</title>
<polygon fill="none" stroke="black" points="547,-1240.5 547,-1276.5 732,-1276.5 732,-1240.5 547,-1240.5"/>
<text text-anchor="middle" x="592.5" y="-1254.8" font-family="Times,serif" font-size="14.00">Startlayer5</text>
<polyline fill="none" stroke="black" points="638,-1240.5 638,-1276.5 "/>
<text text-anchor="middle" x="660" y="-1254.8" font-family="Times,serif" font-size="14.00">null</text>
<polyline fill="none" stroke="black" points="682,-1240.5 682,-1276.5 "/>
<text text-anchor="middle" x="707" y="-1254.8" font-family="Times,serif" font-size="14.00">dummy</text>
</g>
<!-- 12&#45;&gt;13 -->
<g id="edge18" class="edge"><title>12&#45;&gt;13</title>
<path fill="none" stroke="black" d="M639.5,-1312.93C639.5,-1305.17 639.5,-1295.78 639.5,-1287.06"/>
<polygon fill="black" stroke="black" points="643,-1286.9 639.5,-1276.9 636,-1286.9 643,-1286.9"/>
</g>
<!-- 21 -->
<g id="21" class="node"><title>21</title>
<polygon fill="none" stroke="black" points="0,-1094.5 0,-1130.5 165,-1130.5 165,-1094.5 0,-1094.5"/>
<text text-anchor="middle" x="35.5" y="-1108.8" font-family="Times,serif" font-size="14.00">BDDSlave</text>
<polyline fill="none" stroke="black" points="71,-1094.5 71,-1130.5 "/>
<text text-anchor="middle" x="93" y="-1108.8" font-family="Times,serif" font-size="14.00">null</text>
<polyline fill="none" stroke="black" points="115,-1094.5 115,-1130.5 "/>
<text text-anchor="middle" x="140" y="-1108.8" font-family="Times,serif" font-size="14.00">dummy</text>
</g>
<!-- 21&#45;&gt;13 -->
<g id="edge37" class="edge"><title>21&#45;&gt;13</title>
<path fill="none" stroke="black" d="M110.342,-1130.68C145.415,-1151.48 208.17,-1185.97 266.5,-1204 355.477,-1231.5 460.84,-1244.96 536.85,-1251.49"/>
<polygon fill="black" stroke="black" points="536.65,-1254.99 546.907,-1252.33 537.232,-1248.01 536.65,-1254.99"/>
</g>
<!-- 13&#45;&gt;14 -->
<g id="edge19" class="edge"><title>13&#45;&gt;14</title>
<path fill="none" stroke="black" d="M670.556,-1240.46C709.678,-1218.18 777.901,-1176.59 828.5,-1131 876.592,-1087.67 922.603,-1027 946.824,-993.064"/>
<polygon fill="black" stroke="black" points="949.866,-994.825 952.782,-984.639 944.15,-990.783 949.866,-994.825"/>
</g>
<!-- 13&#45;&gt;16 -->
<g id="edge21" class="edge"><title>13&#45;&gt;16</title>
<path fill="none" stroke="black" d="M732.178,-1254.61C792.219,-1249.44 870.49,-1236.34 932.5,-1204 997.051,-1170.34 1052.61,-1102.84 1079.76,-1065.98"/>
<polygon fill="black" stroke="black" points="1082.7,-1067.88 1085.74,-1057.73 1077.04,-1063.78 1082.7,-1067.88"/>
</g>
<!-- 15 -->
<g id="15" class="node"><title>15</title>
<polygon fill="none" stroke="black" points="276,-1167.5 276,-1203.5 447,-1203.5 447,-1167.5 276,-1167.5"/>
<text text-anchor="middle" x="314.5" y="-1181.8" font-family="Times,serif" font-size="14.00">BDDMaster</text>
<polyline fill="none" stroke="black" points="353,-1167.5 353,-1203.5 "/>
<text text-anchor="middle" x="375" y="-1181.8" font-family="Times,serif" font-size="14.00">null</text>
<polyline fill="none" stroke="black" points="397,-1167.5 397,-1203.5 "/>
<text text-anchor="middle" x="422" y="-1181.8" font-family="Times,serif" font-size="14.00">dummy</text>
</g>
<!-- 13&#45;&gt;15 -->
<g id="edge20" class="edge"><title>13&#45;&gt;15</title>
<path fill="none" stroke="black" d="M572.912,-1240.49C532.463,-1230.16 480.663,-1216.93 438.462,-1206.16"/>
<polygon fill="black" stroke="black" points="439.063,-1202.7 428.508,-1203.61 437.331,-1209.48 439.063,-1202.7"/>
</g>
<!-- 23&#45;&gt;24 -->
<g id="edge39" class="edge"><title>23&#45;&gt;24</title>
<path fill="none" stroke="black" d="M601.5,-292.416C601.5,-267.841 601.5,-222.253 601.5,-192.927"/>
<polygon fill="black" stroke="black" points="605,-192.562 601.5,-182.562 598,-192.562 605,-192.562"/>
</g>
<!-- 25 -->
<g id="25" class="node"><title>25</title>
<polygon fill="none" stroke="black" points="740,-219.5 740,-255.5 911,-255.5 911,-219.5 740,-219.5"/>
<text text-anchor="middle" x="778.5" y="-233.8" font-family="Times,serif" font-size="14.00">SetupData</text>
<polyline fill="none" stroke="black" points="817,-219.5 817,-255.5 "/>
<text text-anchor="middle" x="839" y="-233.8" font-family="Times,serif" font-size="14.00">null</text>
<polyline fill="none" stroke="black" points="861,-219.5 861,-255.5 "/>
<text text-anchor="middle" x="886" y="-233.8" font-family="Times,serif" font-size="14.00">dummy</text>
</g>
<!-- 23&#45;&gt;25 -->
<g id="edge40" class="edge"><title>23&#45;&gt;25</title>
<path fill="none" stroke="black" d="M655.154,-292.494C687.196,-282.338 728.077,-269.379 761.759,-258.704"/>
<polygon fill="black" stroke="black" points="763.033,-261.972 771.508,-255.614 760.918,-255.299 763.033,-261.972"/>
</g>
<!-- 25&#45;&gt;26 -->
<g id="edge42" class="edge"><title>25&#45;&gt;26</title>
<path fill="none" stroke="black" d="M825.5,-219.313C825.5,-211.289 825.5,-201.547 825.5,-192.569"/>
<polygon fill="black" stroke="black" points="829,-192.529 825.5,-182.529 822,-192.529 829,-192.529"/>
</g>
<!-- 25&#45;&gt;27 -->
<g id="edge43" class="edge"><title>25&#45;&gt;27</title>
<path fill="none" stroke="black" d="M896.784,-219.384C915.087,-211.419 932.654,-199.826 943.5,-183 952.409,-169.178 952.409,-159.822 943.5,-146 934.518,-132.066 920.927,-121.72 906.126,-114.052"/>
<polygon fill="black" stroke="black" points="907.318,-110.744 896.784,-109.616 904.315,-117.067 907.318,-110.744"/>
</g>
<!-- 0 -->
<g id="0" class="node"><title>0</title>
<polygon fill="none" stroke="black" points="525,-1021.5 525,-1057.5 710,-1057.5 710,-1021.5 525,-1021.5"/>
<text text-anchor="middle" x="570.5" y="-1035.8" font-family="Times,serif" font-size="14.00">PurgeDomain</text>
<polyline fill="none" stroke="black" points="616,-1021.5 616,-1057.5 "/>
<text text-anchor="middle" x="638" y="-1035.8" font-family="Times,serif" font-size="14.00">null</text>
<polyline fill="none" stroke="black" points="660,-1021.5 660,-1057.5 "/>
<text text-anchor="middle" x="685" y="-1035.8" font-family="Times,serif" font-size="14.00">dummy</text>
</g>
<!-- 0&#45;&gt;1 -->
<g id="edge1" class="edge"><title>0&#45;&gt;1</title>
<path fill="none" stroke="black" d="M617.016,-1021.31C616.79,-1013.29 616.515,-1003.55 616.263,-994.569"/>
<polygon fill="black" stroke="black" points="619.76,-994.426 615.98,-984.529 612.763,-994.623 619.76,-994.426"/>
</g>
<!-- 3&#45;&gt;4 -->
<g id="edge4" class="edge"><title>3&#45;&gt;4</title>
<path fill="none" stroke="black" d="M725.5,-510.313C725.5,-502.289 725.5,-492.547 725.5,-483.569"/>
<polygon fill="black" stroke="black" points="729,-483.529 725.5,-473.529 722,-483.529 729,-483.529"/>
</g>
<!-- 9&#45;&gt;32 -->
<g id="edge13" class="edge"><title>9&#45;&gt;32</title>
<path fill="none" stroke="black" d="M993.5,-1603.93C993.5,-1596.17 993.5,-1586.78 993.5,-1578.06"/>
<polygon fill="black" stroke="black" points="997,-1577.9 993.5,-1567.9 990,-1577.9 997,-1577.9"/>
</g>
<!-- 9&#45;&gt;12 -->
<g id="edge12" class="edge"><title>9&#45;&gt;12</title>
<path fill="none" stroke="black" d="M1034.35,-1615.3C1063.5,-1608.95 1101.05,-1595.65 1121.5,-1568 1170.01,-1502.42 1190.03,-1445.67 1135.5,-1385 1106.47,-1352.7 818.351,-1338.48 695.034,-1333.83"/>
<polygon fill="black" stroke="black" points="695.156,-1330.34 685.034,-1333.46 694.898,-1337.33 695.156,-1330.34"/>
</g>
<!-- 15&#45;&gt;19 -->
<g id="edge24" class="edge"><title>15&#45;&gt;19</title>
<path fill="none" stroke="black" d="M361.5,-1167.31C361.5,-1159.29 361.5,-1149.55 361.5,-1140.57"/>
<polygon fill="black" stroke="black" points="365,-1140.53 361.5,-1130.53 358,-1140.53 365,-1140.53"/>
</g>
<!-- 15&#45;&gt;22 -->
<g id="edge26" class="edge"><title>15&#45;&gt;22</title>
<path fill="none" stroke="black" d="M275.84,-1168.51C253.522,-1160.58 231.325,-1148.72 215.5,-1131 187.926,-1100.13 193.5,-1081.89 193.5,-1040.5 193.5,-1040.5 193.5,-1040.5 193.5,-527.5 193.5,-482.177 203.581,-463.289 240.5,-437 288.522,-402.805 457.55,-390.317 546.237,-386.047"/>
<polygon fill="black" stroke="black" points="546.554,-389.536 556.382,-385.578 546.231,-382.544 546.554,-389.536"/>
</g>
<!-- 15&#45;&gt;21 -->
<g id="edge25" class="edge"><title>15&#45;&gt;21</title>
<path fill="none" stroke="black" d="M294.673,-1167.49C253.992,-1157.14 201.872,-1143.88 159.471,-1133.09"/>
<polygon fill="black" stroke="black" points="160.303,-1129.69 149.749,-1130.61 158.577,-1136.47 160.303,-1129.69"/>
</g>
<!-- 17 -->
<g id="17" class="node"><title>17</title>
<polygon fill="none" stroke="black" points="667.5,-1130.5 515.678,-1112.5 667.5,-1094.5 819.322,-1112.5 667.5,-1130.5"/>
<text text-anchor="middle" x="667.5" y="-1108.8" font-family="Times,serif" font-size="14.00">DomaineProducteurAdmin</text>
</g>
<!-- 15&#45;&gt;17 -->
<g id="edge23" class="edge"><title>15&#45;&gt;17</title>
<path fill="none" stroke="black" d="M434.795,-1167.49C488.058,-1155.14 559.202,-1138.63 608.748,-1127.13"/>
<polygon fill="black" stroke="black" points="609.717,-1130.5 618.667,-1124.83 608.135,-1123.68 609.717,-1130.5"/>
</g>
<!-- 20&#45;&gt;22 -->
<g id="edge36" class="edge"><title>20&#45;&gt;22</title>
<path fill="none" stroke="black" d="M320.026,-875.47C302.104,-866.793 282.422,-854.706 268.5,-839 239.676,-806.482 231.5,-791.954 231.5,-748.5 231.5,-748.5 231.5,-748.5 231.5,-527.5 231.5,-481.111 245.403,-463.469 283.5,-437 325.62,-407.736 470.413,-393.209 549.284,-387.317"/>
<polygon fill="black" stroke="black" points="549.774,-390.79 559.494,-386.575 549.266,-383.809 549.774,-390.79"/>
</g>
<!-- 17&#45;&gt;18 -->
<g id="edge29" class="edge"><title>17&#45;&gt;18</title>
<path fill="none" stroke="black" d="M687.483,-1096.79C698.837,-1087.17 712.04,-1073.52 718.5,-1058 737.29,-1012.86 732.859,-995.309 720.5,-948 717.863,-937.906 712.851,-927.703 707.668,-918.952"/>
<polygon fill="black" stroke="black" points="710.587,-917.02 702.296,-910.424 704.664,-920.751 710.587,-917.02"/>
</g>
<!-- 17&#45;&gt;0 -->
<g id="edge28" class="edge"><title>17&#45;&gt;0</title>
<path fill="none" stroke="black" d="M656.403,-1095.74C650.262,-1087.02 642.479,-1075.97 635.491,-1066.05"/>
<polygon fill="black" stroke="black" points="638.235,-1063.86 629.616,-1057.7 632.512,-1067.9 638.235,-1063.86"/>
</g>
</g>
</svg>
