<?xml version="1.0" encoding="UTF-8" standalone="no"?>
<!DOCTYPE svg PUBLIC "-//W3C//DTD SVG 1.1//EN"
 "http://www.w3.org/Graphics/SVG/1.1/DTD/svg11.dtd">
<!-- Generated by graphviz version 2.38.0 (20140413.2041)
 -->
<!-- Title: layer3Tasks Pages: 1 -->
<svg width="266pt" height="404pt"
 viewBox="0.00 0.00 266.03 404.00" xmlns="http://www.w3.org/2000/svg" xmlns:xlink="http://www.w3.org/1999/xlink">
<g id="graph0" class="graph" transform="scale(1 1) rotate(0) translate(4 400)">
<title>layer3Tasks</title>
<polygon fill="white" stroke="none" points="-4,4 -4,-400 262.032,-400 262.032,4 -4,4"/>
<!-- A -->
<g id="node1" class="node"><title>A</title>
<ellipse fill="none" stroke="black" cx="220.032" cy="-378" rx="27" ry="18"/>
<text text-anchor="middle" x="220.032" y="-374.3" font-family="Times,serif" font-size="14.00">A</text>
</g>
<!-- B -->
<g id="node2" class="node"><title>B</title>
<ellipse fill="none" stroke="black" cx="182.032" cy="-306" rx="27" ry="18"/>
<text text-anchor="middle" x="182.032" y="-302.3" font-family="Times,serif" font-size="14.00">B</text>
</g>
<!-- A&#45;&gt;B -->
<g id="edge1" class="edge"><title>A&#45;&gt;B</title>
<path fill="none" stroke="black" d="M211.218,-360.765C206.614,-352.283 200.877,-341.714 195.711,-332.197"/>
<polygon fill="black" stroke="black" points="198.645,-330.266 190.798,-323.147 192.493,-333.606 198.645,-330.266"/>
</g>
<!-- localhost -->
<g id="node9" class="node"><title>localhost</title>
<ellipse fill="none" stroke="black" cx="145.032" cy="-18" rx="50.0912" ry="18"/>
<text text-anchor="middle" x="145.032" y="-14.3" font-family="Times,serif" font-size="14.00">localhost</text>
</g>
<!-- A&#45;&gt;localhost -->
<g id="edge10" class="edge"><title>A&#45;&gt;localhost</title>
<path fill="none" stroke="black" d="M227.54,-360.338C238.614,-334.197 258.032,-281.702 258.032,-235 258.032,-235 258.032,-235 258.032,-161 258.032,-108.575 210.29,-64.3077 176.871,-39.7426"/>
<polygon fill="black" stroke="black" points="178.894,-36.8868 168.72,-33.9288 174.829,-42.5855 178.894,-36.8868"/>
</g>
<!-- D -->
<g id="node3" class="node"><title>D</title>
<ellipse fill="none" stroke="black" cx="127.032" cy="-234" rx="27" ry="18"/>
<text text-anchor="middle" x="127.032" y="-230.3" font-family="Times,serif" font-size="14.00">D</text>
</g>
<!-- B&#45;&gt;D -->
<g id="edge2" class="edge"><title>B&#45;&gt;D</title>
<path fill="none" stroke="black" d="M170.098,-289.811C162.818,-280.546 153.369,-268.52 145.177,-258.094"/>
<polygon fill="black" stroke="black" points="147.873,-255.86 138.943,-250.159 142.369,-260.185 147.873,-255.86"/>
</g>
<!-- C -->
<g id="node4" class="node"><title>C</title>
<ellipse fill="none" stroke="black" cx="55.0319" cy="-234" rx="27" ry="18"/>
<text text-anchor="middle" x="55.0319" y="-230.3" font-family="Times,serif" font-size="14.00">C</text>
</g>
<!-- B&#45;&gt;C -->
<g id="edge3" class="edge"><title>B&#45;&gt;C</title>
<path fill="none" stroke="black" d="M161.908,-293.908C141.038,-282.405 108.194,-264.302 84.4203,-251.198"/>
<polygon fill="black" stroke="black" points="85.9292,-248.034 75.4819,-246.272 82.5501,-254.164 85.9292,-248.034"/>
</g>
<!-- E -->
<g id="node5" class="node"><title>E</title>
<ellipse fill="none" stroke="black" cx="127.032" cy="-162" rx="27" ry="18"/>
<text text-anchor="middle" x="127.032" y="-158.3" font-family="Times,serif" font-size="14.00">E</text>
</g>
<!-- B&#45;&gt;E -->
<g id="edge4" class="edge"><title>B&#45;&gt;E</title>
<path fill="none" stroke="black" d="M180.376,-288.012C178.142,-269.654 173.206,-239.83 163.032,-216 158.643,-205.719 152.151,-195.342 145.885,-186.529"/>
<polygon fill="black" stroke="black" points="148.549,-184.244 139.78,-178.298 142.927,-188.415 148.549,-184.244"/>
</g>
<!-- B&#45;&gt;localhost -->
<g id="edge11" class="edge"><title>B&#45;&gt;localhost</title>
<path fill="none" stroke="black" d="M184.846,-287.847C190.622,-248.603 201.409,-149.675 178.032,-72 175.064,-62.1396 169.755,-52.2988 164.25,-43.821"/>
<polygon fill="black" stroke="black" points="167.093,-41.7787 158.533,-35.5358 161.332,-45.7543 167.093,-41.7787"/>
</g>
<!-- F -->
<g id="node6" class="node"><title>F</title>
<ellipse fill="none" stroke="black" cx="55.0319" cy="-162" rx="27" ry="18"/>
<text text-anchor="middle" x="55.0319" y="-158.3" font-family="Times,serif" font-size="14.00">F</text>
</g>
<!-- D&#45;&gt;F -->
<g id="edge5" class="edge"><title>D&#45;&gt;F</title>
<path fill="none" stroke="black" d="M112.462,-218.834C102.282,-208.938 88.5081,-195.546 77.0013,-184.359"/>
<polygon fill="black" stroke="black" points="79.4374,-181.846 69.8277,-177.385 74.5579,-186.865 79.4374,-181.846"/>
</g>
<!-- D&#45;&gt;localhost -->
<g id="edge13" class="edge"><title>D&#45;&gt;localhost</title>
<path fill="none" stroke="black" d="M140.782,-218.069C148.993,-208.1 158.651,-194.247 163.032,-180 177.13,-134.153 164.456,-77.9389 154.423,-45.5177"/>
<polygon fill="black" stroke="black" points="157.709,-44.304 151.296,-35.8707 151.05,-46.4626 157.709,-44.304"/>
</g>
<!-- C&#45;&gt;F -->
<g id="edge6" class="edge"><title>C&#45;&gt;F</title>
<path fill="none" stroke="black" d="M55.0319,-215.697C55.0319,-207.983 55.0319,-198.712 55.0319,-190.112"/>
<polygon fill="black" stroke="black" points="58.532,-190.104 55.0319,-180.104 51.532,-190.104 58.532,-190.104"/>
</g>
<!-- C&#45;&gt;localhost -->
<g id="edge12" class="edge"><title>C&#45;&gt;localhost</title>
<path fill="none" stroke="black" d="M41.5498,-217.982C33.4463,-207.979 23.8066,-194.12 19.0319,-180 3.64548,-134.498 -11.765,-111.863 15.0319,-72 20.1899,-64.3269 64.9035,-47.1304 100.471,-34.3953"/>
<polygon fill="black" stroke="black" points="101.967,-37.5781 110.219,-30.9333 99.6245,-30.9817 101.967,-37.5781"/>
</g>
<!-- G -->
<g id="node7" class="node"><title>G</title>
<ellipse fill="none" stroke="black" cx="51.0319" cy="-90" rx="27" ry="18"/>
<text text-anchor="middle" x="51.0319" y="-86.3" font-family="Times,serif" font-size="14.00">G</text>
</g>
<!-- E&#45;&gt;G -->
<g id="edge8" class="edge"><title>E&#45;&gt;G</title>
<path fill="none" stroke="black" d="M111.652,-146.834C100.836,-136.872 86.1751,-123.369 73.9808,-112.137"/>
<polygon fill="black" stroke="black" points="76.1155,-109.345 66.3888,-105.144 71.3731,-114.494 76.1155,-109.345"/>
</g>
<!-- E&#45;&gt;localhost -->
<g id="edge14" class="edge"><title>E&#45;&gt;localhost</title>
<path fill="none" stroke="black" d="M129.203,-143.871C132.271,-119.67 137.907,-75.2108 141.56,-46.3932"/>
<polygon fill="black" stroke="black" points="145.068,-46.55 142.853,-36.1893 138.123,-45.6697 145.068,-46.55"/>
</g>
<!-- F&#45;&gt;G -->
<g id="edge7" class="edge"><title>F&#45;&gt;G</title>
<path fill="none" stroke="black" d="M54.0432,-143.697C53.6024,-135.983 53.0726,-126.712 52.5812,-118.112"/>
<polygon fill="black" stroke="black" points="56.0742,-117.888 52.0093,-108.104 49.0856,-118.288 56.0742,-117.888"/>
</g>
<!-- F&#45;&gt;localhost -->
<g id="edge15" class="edge"><title>F&#45;&gt;localhost</title>
<path fill="none" stroke="black" d="M65.0074,-145.261C80.5195,-120.786 110.563,-73.3845 129.101,-44.136"/>
<polygon fill="black" stroke="black" points="132.058,-46.0072 134.456,-35.6871 126.146,-42.2598 132.058,-46.0072"/>
</g>
<!-- end -->
<g id="node8" class="node"><title>end</title>
<ellipse fill="none" stroke="black" cx="50.0319" cy="-18" rx="27" ry="18"/>
<text text-anchor="middle" x="50.0319" y="-14.3" font-family="Times,serif" font-size="14.00">end</text>
</g>
<!-- G&#45;&gt;end -->
<g id="edge9" class="edge"><title>G&#45;&gt;end</title>
<path fill="none" stroke="black" d="M50.7847,-71.6966C50.6745,-63.9827 50.5421,-54.7125 50.4193,-46.1124"/>
<polygon fill="black" stroke="black" points="53.9189,-46.0533 50.2763,-36.1043 46.9196,-46.1533 53.9189,-46.0533"/>
</g>
<!-- G&#45;&gt;localhost -->
<g id="edge16" class="edge"><title>G&#45;&gt;localhost</title>
<path fill="none" stroke="black" d="M68.7126,-75.8335C81.995,-65.9424 100.479,-52.1778 115.929,-40.6722"/>
<polygon fill="black" stroke="black" points="118.218,-43.3314 124.148,-34.5516 114.038,-37.7171 118.218,-43.3314"/>
</g>
</g>
</svg>
